<svg width="64" height="64" viewBox="0 0 64 64" fill="none" xmlns="http://www.w3.org/2000/svg">
  <rect width="64" height="64" rx="8" fill="#0f172a"/>
  <path d="M18 42.5C22.3 46.3 28.1 48 33.7 48C41.1 48 47 44.6 47 38.4C47 32.6 42.4 30.2 34.2 28.5C28.7 27.3 26.6 26.3 26.6 23.9C26.6 21.6 28.8 20.1 32.3 20.1C36.3 20.1 39.7 21.5 42.7 24.1L46.2 18.9C42.6 15.7 37.7 14 32.5 14C25.3 14 19.7 17.9 19.7 24.2C19.7 30.3 24.2 32.7 32.1 34.3C38 35.5 40.1 36.5 40.1 38.9C40.1 41.1 37.8 42.6 33.8 42.6C29.2 42.6 25 40.9 21.7 37.9L18 42.5Z" fill="#f7f4ec"/>
  <circle cx="49" cy="17" r="4" fill="#14b8a6"/>
</svg>
